<svg width="21" height="19" fill="none" xmlns="http://www.w3.org/2000/svg"><path d="M11.213 1.004l1.631 5.02a1.25 1.25 0 001.189.863h5.278c.726 0 1.028.93.44 1.357l-4.27 3.102a1.25 1.25 0 00-.453 1.398l1.63 5.019c.225.69-.566 1.265-1.154.838l-4.27-3.102a1.25 1.25 0 00-1.469 0l-4.27 3.102c-.587.428-1.378-.147-1.153-.838l1.63-5.02a1.25 1.25 0 00-.454-1.397l-4.27-3.102c-.587-.427-.285-1.357.441-1.357h5.278a1.25 1.25 0 001.189-.863l1.63-5.02c.225-.69 1.203-.69 1.427 0z" stroke="#9D9D9D" stroke-width=".5"/></svg>